HIERARCHY
ROOT Hips
{
	OFFSET 0.000000 0.000000 0.000000
	CHANNELS 6 Xposition Yposition Zposition Zrotation Yrotation Xrotation 
	JOINT LowerBack
	{
		OFFSET 0.000000 0.000000 0.000000
		CHANNELS 3 Zrotation Yrotation Xrotation
		JOINT Spine
		{
			OFFSET 0.028270 2.035590 -0.193380
			CHANNELS 3 Zrotation Yrotation Xrotation
			JOINT Spine1
			{
				OFFSET 0.056720 2.048850 -0.042750
				CHANNELS 3 Zrotation Yrotation Xrotation
				JOINT Neck
				{
					OFFSET 0.000000 0.000000 0.000000
					CHANNELS 3 Zrotation Yrotation Xrotation
					JOINT Neck1
					{
						OFFSET -0.054170 1.746240 0.172020
						CHANNELS 3 Zrotation Yrotation Xrotation
						JOINT Head
						{
							OFFSET 0.104070 1.761360 -0.123970
							CHANNELS 3 Zrotation Yrotation Xrotation
							End Site
							{
								OFFSET 0.000000 0.000000 0.000000
							}
						}
					}
				}
				JOINT LeftShoulder
				{
					OFFSET 0.000000 0.000000 0.000000
					CHANNELS 3 Zrotation Yrotation Xrotation
					JOINT LeftArm
					{
						OFFSET 3.362410 1.200890 -0.311210
						CHANNELS 3 Zrotation Yrotation Xrotation
						JOINT LeftForeArm
						{
							OFFSET 4.983000 -0.000000 -0.000000
							CHANNELS 3 Zrotation Yrotation Xrotation
							JOINT LeftHand
							{
								OFFSET 3.483560 -0.000000 -0.000000
								CHANNELS 3 Zrotation Yrotation Xrotation
								JOINT LeftFingerBase
								{
									OFFSET 0.000000 0.000000 0.000000
									CHANNELS 3 Zrotation Yrotation Xrotation
									JOINT LeftHandIndex1
									{
										OFFSET 0.715260 -0.000000 -0.000000
										CHANNELS 3 Zrotation Yrotation Xrotation
										End Site
										{
											OFFSET 0.000000 0.000000 0.000000
										}
									}
								}
								JOINT LThumb
								{
									OFFSET 0.000000 0.000000 0.000000
									CHANNELS 3 Zrotation Yrotation Xrotation
									End Site
									{
										OFFSET 0.000000 0.000000 0.000000
									}
								}
							}
						}
					}
				}
				JOINT RightShoulder
				{
					OFFSET 0.000000 0.000000 0.000000
					CHANNELS 3 Zrotation Yrotation Xrotation
					JOINT RightArm
					{
						OFFSET -3.136600 1.374050 -0.404650
						CHANNELS 3 Zrotation Yrotation Xrotation
						JOINT RightForeArm
						{
							OFFSET -5.241900 -0.000000 -0.000000
							CHANNELS 3 Zrotation Yrotation Xrotation
							JOINT RightHand
							{
								OFFSET -3.444170 -0.000000 -0.000000
								CHANNELS 3 Zrotation Yrotation Xrotation
								JOINT RightFingerBase
								{
									OFFSET 0.000000 0.000000 0.000000
									CHANNELS 3 Zrotation Yrotation Xrotation
									JOINT RightHandIndex1
									{
										OFFSET -0.622530 -0.000000 -0.000000
										CHANNELS 3 Zrotation Yrotation Xrotation
										End Site
										{
											OFFSET 0.000000 0.000000 0.000000
										}
									}
								}
								JOINT RThumb
								{
									OFFSET 0.000000 0.000000 0.000000
									CHANNELS 3 Zrotation Yrotation Xrotation
									End Site
									{
										OFFSET 0.000000 0.000000 0.000000
									}
								}
							}
						}
					}
				}
			}
		}
	}
}
}
MOTION
Frames: 10
Frame Time: 0.008333
2.720792 16.835385 1.043611 -170.031163 -60.590068 -151.399724 2.615026 -5.300288 3.614703 0.613868 -5.403274 -2.128765 -4.016600 -5.533743 1.208312 17.367931 -16.058569 -12.253649 2.074070 0.304343 -1.663303 0.000000 0.000000 0.000000 34.895687 1.774971 5.528940 21.246559 -23.652072 -106.145674 2.889793 1.888913 -0.083373 14.520945 -5.843918 -0.852342 -0.597149 0.568802 -0.000000 0.000000 0.000000 0.000000 0.000000 0.000000 0.000000 -0.663472 -12.617889 -1.763166 67.803902 3.386212 20.732217 -178.712220 64.076308 179.894109 -12.767810 2.458083 -0.337284 0.178682 -0.517378 0.000000 0.000000 0.000000 0.000000 0.000000 0.000000 0.000000 
2.727270 16.817439 1.048891 -170.209103 -60.080470 -150.980266 2.678472 -5.299893 3.730599 0.634490 -5.409415 -2.079466 -3.982914 -5.540781 1.340766 17.164169 -16.151413 -12.196084 2.050365 0.301083 -1.650387 0.000000 0.000000 0.000000 34.501517 2.498095 5.451328 21.538219 -23.770231 -106.451164 2.944505 1.179380 -0.088417 14.695136 -5.983569 -0.883513 -0.596524 0.587371 -0.000000 0.000000 0.000000 0.000000 0.000000 0.000000 0.000000 -0.816110 -12.729659 -1.810128 68.133443 3.059688 20.654169 -178.661355 64.045482 179.894109 -12.741610 2.510683 -0.342519 0.172632 -0.517659 0.000000 0.000000 0.000000 0.000000 0.000000 0.000000 0.000000 
2.736033 16.799698 1.052088 -170.427092 -59.600649 -150.541261 2.701542 -5.293460 3.862538 0.645999 -5.407267 -2.028078 -3.949534 -5.538463 1.452431 16.946737 -16.212515 -12.110119 2.008528 0.295453 -1.628725 0.000000 0.000000 0.000000 34.048009 3.192156 5.327633 21.689464 -24.094866 -105.561668 2.926762 -0.030708 -0.093270 14.439164 -5.740112 -0.837089 -0.578522 0.598777 -0.000000 0.000000 0.000000 0.000000 0.000000 0.000000 0.000000 -0.968069 -12.761001 -1.850558 68.534622 2.615082 20.507850 -178.613589 63.998445 179.894023 -12.714979 2.576968 -0.349243 0.166898 -0.518659 0.000000 0.000000 0.000000 0.000000 0.000000 0.000000 0.000000 
2.747367 16.781927 1.053502 -170.682304 -59.152084 -150.086551 2.690047 -5.280149 4.010227 0.646571 -5.396914 -1.977716 -3.922957 -5.527420 1.528260 16.717761 -16.261061 -11.982453 1.951745 0.287485 -1.594549 0.000000 0.000000 0.000000 33.640858 3.736787 5.135495 21.409907 -24.480015 -102.802975 2.802738 -1.884432 -0.098373 13.918783 -4.907709 -0.700263 -0.552613 0.596162 -0.000000 0.000000 0.000000 0.000000 0.000000 0.000000 0.000000 -1.118323 -12.745392 -1.873685 68.990394 2.096630 20.336537 -178.572218 63.953286 179.893729 -12.714231 2.634700 -0.355754 0.162583 -0.519821 0.000000 0.000000 0.000000 0.000000 0.000000 0.000000 0.000000 
2.761286 16.764029 1.053433 -170.968263 -58.732715 -149.624198 2.659468 -5.257408 4.170529 0.635773 -5.377325 -1.931797 -3.913467 -5.507169 1.554260 16.466061 -16.285091 -11.800319 1.881141 0.277032 -1.544336 0.000000 0.000000 0.000000 33.326658 4.034065 4.875878 20.550731 -24.727188 -98.219180 2.577797 -4.460667 -0.104100 13.302130 -3.536158 -0.500624 -0.524267 0.581220 -0.000000 0.000000 0.000000 0.000000 0.000000 0.000000 0.000000 -1.285829 -12.683396 -1.872678 69.516499 1.501052 20.145765 -178.537059 63.922805 179.893265 -12.730000 2.693258 -0.362953 0.159144 -0.521361 0.000000 0.000000 0.000000 0.000000 0.000000 0.000000 0.000000 
2.777438 16.745910 1.052316 -171.275571 -58.343996 -149.163762 2.623418 -5.222148 4.338054 0.612210 -5.346658 -1.892833 -3.935860 -5.476117 1.522406 16.190788 -16.278526 -11.556900 1.797865 0.264094 -1.476224 0.000000 0.000000 0.000000 33.121083 4.014275 4.566846 19.116874 -24.633634 -92.412038 2.290526 -7.753110 -0.110570 12.713588 -1.851606 -0.280863 -0.495049 0.561304 -0.000000 0.000000 0.000000 0.000000 0.000000 0.000000 0.000000 -1.469820 -12.583287 -1.842466 70.111063 0.836764 19.945778 -178.508862 63.912895 179.892654 -12.760112 2.753109 -0.370641 0.156456 -0.523214 0.000000 0.000000 0.000000 0.000000 0.000000 0.000000 0.000000 
2.795086 16.727658 1.050231 -171.598967 -57.986845 -148.707077 2.587757 -5.173345 4.506961 0.574952 -5.303863 -1.858606 -4.001226 -5.432763 1.446436 15.909877 -16.250925 -11.264993 1.703440 0.249157 -1.394148 0.000000 0.000000 0.000000 32.966899 3.739909 4.244146 17.402883 -24.183452 -86.548787 2.004742 -11.559315 -0.116890 12.186567 -0.232985 -0.088167 -0.462711 0.547707 -0.000000 0.000000 0.000000 0.000000 0.000000 0.000000 0.000000 -1.635883 -12.466473 -1.786539 70.742651 0.140549 19.753253 -178.490665 63.923921 179.891970 -12.806604 2.806161 -0.378218 0.154892 -0.524972 0.000000 0.000000 0.000000 0.000000 0.000000 0.000000 0.000000 
2.813652 16.709235 1.047502 -171.928162 -57.662238 -148.261469 2.559081 -5.112810 4.674477 0.525358 -5.250505 -1.827715 -4.111428 -5.378484 1.336568 15.633105 -16.203027 -10.935746 1.600323 0.232743 -1.301528 0.000000 0.000000 0.000000 32.816146 3.277085 3.927697 15.610240 -23.443763 -81.224977 1.748483 -15.732620 -0.122532 11.754049 1.177763 0.066066 -0.428590 0.543050 -0.000000 0.000000 0.000000 0.000000 0.000000 0.000000 0.000000 -1.769757 -12.338206 -1.709811 71.389020 -0.562611 19.577881 -178.483110 63.954256 179.891272 -12.865894 2.851560 -0.385285 0.154436 -0.526490 0.000000 0.000000 0.000000 0.000000 0.000000 0.000000 0.000000 
2.832317 16.690561 1.044456 -172.248817 -57.371099 -147.832791 2.543201 -5.044825 4.839407 0.467296 -5.190236 -1.796190 -4.258382 -5.316634 1.213391 15.369943 -16.147985 -10.589388 1.491818 0.215651 -1.204594 0.000000 0.000000 0.000000 32.621200 2.754122 3.627355 13.902041 -22.602873 -76.804808 1.533668 -20.106587 -0.127128 11.426964 2.317198 0.181632 -0.394422 0.546434 -0.000000 0.000000 0.000000 0.000000 0.000000 0.000000 0.000000 -1.858404 -12.213900 -1.621303 72.020573 -1.226346 19.440441 -178.486999 64.004310 179.890618 -12.936452 2.885316 -0.391343 0.155225 -0.527557 0.000000 0.000000 0.000000 0.000000 0.000000 0.000000 0.000000 
2.850774 16.671533 1.041463 -172.553200 -57.113877 -147.426065 2.546040 -4.974165 5.003299 0.405763 -5.127406 -1.761162 -4.428756 -5.251546 1.091603 15.120750 -16.096263 -10.242056 1.381300 0.198567 -1.108280 0.000000 0.000000 0.000000 32.363891 2.272533 3.340086 12.307619 -21.827215 -73.297348 1.357485 -24.588681 -0.130854 11.217882 3.235464 0.270221 -0.362342 0.553747 -0.000000 0.000000 0.000000 0.000000 0.000000 0.000000 0.000000 -1.905916 -12.104890 -1.528530 72.617299 -1.813470 19.360735 -178.501631 64.074883 179.890038 -13.015437 2.907373 -0.396396 0.157201 -0.528128 0.000000 0.000000 0.000000 0.000000 0.000000 0.000000 0.000000 
